<svg width="400" height="225" viewBox="0 0 400 225" fill="none" xmlns="http://www.w3.org/2000/svg">
  <!-- Background gradient -->
  <defs>
    <linearGradient id="gamingBg" x1="0%" y1="0%" x2="100%" y2="100%">
      <stop offset="0%" style="stop-color:#1a1a2e;stop-opacity:1" />
      <stop offset="50%" style="stop-color:#16213e;stop-opacity:1" />
      <stop offset="100%" style="stop-color:#0f3460;stop-opacity:1" />
    </linearGradient>
    <linearGradient id="controllerGrad" x1="0%" y1="0%" x2="100%" y2="100%">
      <stop offset="0%" style="stop-color:#ff6b6b;stop-opacity:1" />
      <stop offset="100%" style="stop-color:#ee5a24;stop-opacity:1" />
    </linearGradient>
    <linearGradient id="screenGrad" x1="0%" y1="0%" x2="100%" y2="100%">
      <stop offset="0%" style="stop-color:#00d2d3;stop-opacity:1" />
      <stop offset="100%" style="stop-color:#54a0ff;stop-opacity:1" />
    </linearGradient>
  </defs>
  
  <!-- Background -->
  <rect width="400" height="225" fill="url(#gamingBg)"/>
  
  <!-- Gaming controller (left) -->
  <g transform="translate(50, 80)">
    <!-- Controller body -->
    <ellipse cx="40" cy="30" rx="35" ry="20" fill="url(#controllerGrad)" opacity="0.9"/>
    
    <!-- Controller handles -->
    <ellipse cx="15" cy="30" rx="12" ry="18" fill="url(#controllerGrad)" opacity="0.8"/>
    <ellipse cx="65" cy="30" rx="12" ry="18" fill="url(#controllerGrad)" opacity="0.8"/>
    
    <!-- D-pad -->
    <rect x="25" y="25" width="8" height="8" fill="#2c2c54" rx="2"/>
    <rect x="27" y="23" width="4" height="12" fill="#2c2c54" rx="1"/>
    <rect x="23" y="27" width="12" height="4" fill="#2c2c54" rx="1"/>
    
    <!-- Action buttons -->
    <circle cx="55" cy="25" r="3" fill="#00d2d3"/>
    <circle cx="62" cy="32" r="3" fill="#ff9ff3"/>
    <circle cx="55" cy="39" r="3" fill="#54a0ff"/>
    <circle cx="48" cy="32" r="3" fill="#ff6b6b"/>
    
    <!-- Shoulder buttons -->
    <rect x="30" y="8" width="20" height="6" fill="#2c2c54" rx="3"/>
    <rect x="30" y="46" width="20" height="6" fill="#2c2c54" rx="3"/>
  </g>
  
  <!-- Gaming monitor/screen (center) -->
  <g transform="translate(150, 60)">
    <!-- Monitor stand -->
    <rect x="35" y="80" width="30" height="8" fill="#2c2c54"/>
    <rect x="25" y="88" width="50" height="15" fill="#2c2c54"/>
    
    <!-- Monitor screen -->
    <rect x="10" y="10" width="80" height="60" fill="url(#screenGrad)" rx="8"/>
    <rect x="15" y="15" width="70" height="50" fill="#1a1a2e" rx="4"/>
    
    <!-- Screen content (game UI elements) -->
    <rect x="20" y="25" width="20" height="15" fill="#00d2d3" opacity="0.7" rx="2"/>
    <rect x="60" y="25" width="20" height="15" fill="#ff6b6b" opacity="0.7" rx="2"/>
    <rect x="20" y="45" width="60" height="8" fill="#54a0ff" opacity="0.5" rx="2"/>
    
    <!-- Screen glow effect -->
    <rect x="8" y="8" width="84" height="64" fill="none" stroke="#00d2d3" stroke-width="2" opacity="0.6" rx="8"/>
  </g>
  
  <!-- Gaming keyboard (right) -->
  <g transform="translate(280, 100)">
    <!-- Keyboard base -->
    <rect x="0" y="0" width="80" height="25" fill="#2c2c54" rx="4"/>
    
    <!-- RGB lighting effect -->
    <rect x="2" y="2" width="76" height="21" fill="none" stroke="#00d2d3" stroke-width="1" opacity="0.8" rx="3"/>
    
    <!-- Key rows -->
    <g fill="#1a1a2e">
      <!-- Top row -->
      <rect x="5" y="5" width="4" height="3" rx="1"/>
      <rect x="10" y="5" width="4" height="3" rx="1"/>
      <rect x="15" y="5" width="4" height="3" rx="1"/>
      <rect x="20" y="5" width="4" height="3" rx="1"/>
      <rect x="25" y="5" width="4" height="3" rx="1"/>
      <rect x="30" y="5" width="4" height="3" rx="1"/>
      <rect x="35" y="5" width="4" height="3" rx="1"/>
      <rect x="40" y="5" width="4" height="3" rx="1"/>
      <rect x="45" y="5" width="4" height="3" rx="1"/>
      <rect x="50" y="5" width="4" height="3" rx="1"/>
      <rect x="55" y="5" width="4" height="3" rx="1"/>
      <rect x="60" y="5" width="4" height="3" rx="1"/>
      <rect x="65" y="5" width="4" height="3" rx="1"/>
      <rect x="70" y="5" width="4" height="3" rx="1"/>
      
      <!-- Middle row -->
      <rect x="8" y="10" width="4" height="3" rx="1"/>
      <rect x="13" y="10" width="4" height="3" rx="1"/>
      <rect x="18" y="10" width="4" height="3" rx="1"/>
      <rect x="23" y="10" width="4" height="3" rx="1"/>
      <rect x="28" y="10" width="4" height="3" rx="1"/>
      <rect x="33" y="10" width="4" height="3" rx="1"/>
      <rect x="38" y="10" width="4" height="3" rx="1"/>
      <rect x="43" y="10" width="4" height="3" rx="1"/>
      <rect x="48" y="10" width="4" height="3" rx="1"/>
      <rect x="53" y="10" width="4" height="3" rx="1"/>
      <rect x="58" y="10" width="4" height="3" rx="1"/>
      <rect x="63" y="10" width="4" height="3" rx="1"/>
      <rect x="68" y="10" width="4" height="3" rx="1"/>
      
      <!-- Bottom row -->
      <rect x="5" y="15" width="6" height="3" rx="1"/>
      <rect x="12" y="15" width="4" height="3" rx="1"/>
      <rect x="17" y="15" width="4" height="3" rx="1"/>
      <rect x="22" y="15" width="4" height="3" rx="1"/>
      <rect x="27" y="15" width="4" height="3" rx="1"/>
      <rect x="32" y="15" width="4" height="3" rx="1"/>
      <rect x="37" y="15" width="4" height="3" rx="1"/>
      <rect x="42" y="15" width="4" height="3" rx="1"/>
      <rect x="47" y="15" width="4" height="3" rx="1"/>
      <rect x="52" y="15" width="4" height="3" rx="1"/>
      <rect x="57" y="15" width="4" height="3" rx="1"/>
      <rect x="62" y="15" width="4" height="3" rx="1"/>
      <rect x="67" y="15" width="6" height="3" rx="1"/>
    </g>
  </g>
  
  <!-- Gaming elements -->
  <!-- Power button glow -->
  <circle cx="320" cy="50" r="8" fill="#00d2d3" opacity="0.6">
    <animate attributeName="opacity" values="0.3;0.8;0.3" dur="2s" repeatCount="indefinite"/>
  </circle>
  
  <!-- Speed lines -->
  <g opacity="0.4">
    <line x1="20" y1="40" x2="40" y2="35" stroke="#00d2d3" stroke-width="2"/>
    <line x1="25" y1="50" x2="45" y2="45" stroke="#ff6b6b" stroke-width="2"/>
    <line x1="30" y1="60" x2="50" y2="55" stroke="#54a0ff" stroke-width="2"/>
  </g>
  
  <!-- Floating particles -->
  <circle cx="80" cy="40" r="2" fill="#00d2d3" opacity="0.7">
    <animate attributeName="cy" values="40;20;40" dur="3s" repeatCount="indefinite"/>
  </circle>
  <circle cx="120" cy="180" r="1.5" fill="#ff6b6b" opacity="0.6">
    <animate attributeName="cy" values="180;160;180" dur="2.5s" repeatCount="indefinite"/>
  </circle>
  <circle cx="350" cy="120" r="1" fill="#54a0ff" opacity="0.8">
    <animate attributeName="cy" values="120;100;120" dur="2s" repeatCount="indefinite"/>
  </circle>
</svg>